# xmcd CD database file
#
# Track frame offsets:
#	150
#	50887
#	72638
#	102787
#	131765
#	148789
#	195900
#	208412
#	274844
#	328815
#
# Disc length: 4762 seconds
#
# Revision: 0
# Processed by: cddbd v1.5.2PL0 Copyright (c) Steve Scherf et al.
# Submitted via: CDex 1.70beta2
#
DISCID=aa12980a
DTITLE=John Law - Out Of The Darkness (Cornocopia Ensemble)
DYEAR=2006
DGENRE=Jazz
TTITLE0=Out Of The Darkness - Part 1 - Exposition - Canons
TTITLE1=Out Of The Darkness - Part 2 - Development
TTITLE2=Out Of The Darkness - Part 3 - Chaconne
TTITLE3=Out Of The Darkness - Part 4 - Slow Movement
TTITLE4=Out Of The Darkness - Part 5 - Ensemble
TTITLE5=Out Of The Darkness - Part 6 - Fast Movement - Rondo
TTITLE6=Out Of The Darkness - Part 7 - Coda
TTITLE7=Talitha Cumi
TTITLE8=Nocturne
TTITLE9=The Loop (for Francois Corneloup)
EXTD=YEAR: 2006
EXTT0=
EXTT1=
EXTT2=
EXTT3=
EXTT4=
EXTT5=
EXTT6=
EXTT7=
EXTT8=
EXTT9=
PLAYORDER=
